<svg width="107" height="31" viewBox="0 0 107 31" fill="none" xmlns="http://www.w3.org/2000/svg">
<path d="M25.7149 16.8269C27.1751 13.2324 25.6736 9.80679 21.5214 7.07275C23.2325 9.33828 23.5957 11.5169 22.3014 13.0846C21.563 13.9792 20.3302 14.3325 18.9657 14.7229C16.7432 15.3598 13.4487 15.8076 12.0918 19.1481C10.6319 22.7422 11.3789 25.9062 15.5307 28.6394C13.8194 26.3744 14.9326 24.7474 16.2275 23.1799C16.9661 22.2848 18.199 21.9314 19.5628 21.5408C21.7867 20.9045 24.358 20.1674 25.7149 16.8269Z" fill="#38BDF8"/>
<path d="M15.5931 10.752C17.0533 7.15739 17.3279 4.67644 13.7335 2.28014C14.3325 4.67644 12.5583 6.55096 12.1796 7.00967C11.4412 7.9042 10.2084 8.25757 8.84387 8.6479C6.62135 9.28479 4.04914 10.0221 2.69221 13.3626C1.23228 16.9566 2.39283 19.9155 6.54457 22.6487C4.83324 20.3837 4.81075 18.6724 6.10572 17.1049C6.84432 16.2098 8.07715 15.8565 9.44102 15.4659C11.6649 14.8295 14.2362 14.0925 15.5931 10.752Z" fill="#38BDF8"/>
<path d="M21.5214 7.0724C20.9224 6.47332 13.4042 2.01307 13.7335 2.2801C14.0627 2.54713 19.7242 12.3363 10.7381 14.2616C1.75196 16.1869 5.94549 22.0493 6.54456 22.6483C7.14364 23.2474 15.5307 28.6394 15.5307 28.6394C15.5307 28.6394 6.54453 18.4548 17.3279 15.4595C28.1113 12.4641 22.1205 7.67147 21.5214 7.0724Z" fill="#4DFF94"/>
<path d="M32.802 21V9.44H36.389C37.715 9.44 38.735 9.84233 39.449 10.647C40.163 11.4403 40.52 12.5397 40.52 13.945V16.478C40.52 17.8947 40.163 19.0053 39.449 19.81C38.735 20.6033 37.715 21 36.389 21H32.802ZM36.355 10.834H34.281V19.623H36.355C38.1117 19.623 38.99 18.5747 38.99 16.478V13.945C38.99 11.871 38.1117 10.834 36.355 10.834ZM49.4232 20.507C48.9132 20.7563 48.4032 20.9263 47.8932 21.017C47.3832 21.119 46.9129 21.17 46.4822 21.17C45.2696 21.17 44.3629 20.8243 43.7622 20.133C43.1729 19.4417 42.8782 18.4953 42.8782 17.294V16.274C42.8782 15.1067 43.1729 14.1717 43.7622 13.469C44.3629 12.7663 45.2072 12.415 46.2952 12.415C46.8732 12.415 47.4002 12.534 47.8762 12.772C48.3636 12.9987 48.7489 13.35 49.0322 13.826C49.3269 14.2907 49.4742 14.8913 49.4742 15.628C49.4742 16.104 49.4062 16.648 49.2702 17.26H44.2552V17.294C44.2552 18.1553 44.4309 18.807 44.7822 19.249C45.1449 19.691 45.7229 19.912 46.5162 19.912C46.8789 19.912 47.2756 19.8667 47.7062 19.776C48.1482 19.6853 48.5789 19.5437 48.9982 19.351L49.4232 20.507ZM46.2952 13.639C45.6379 13.639 45.1392 13.8543 44.7992 14.285C44.4706 14.7043 44.2892 15.2993 44.2552 16.07H48.0632C48.0972 15.866 48.1142 15.6733 48.1142 15.492C48.1142 14.8573 47.9329 14.3927 47.5702 14.098C47.2189 13.792 46.7939 13.639 46.2952 13.639ZM53.9436 19.929C55.077 19.929 55.6436 19.5437 55.6436 18.773C55.6436 18.4443 55.5416 18.1837 55.3376 17.991C55.1336 17.7983 54.7596 17.634 54.2156 17.498L53.2806 17.26C52.5893 17.09 52.0736 16.7953 51.7336 16.376C51.3936 15.9453 51.2236 15.4353 51.2236 14.846C51.2236 14.4153 51.32 14.0187 51.5126 13.656C51.7053 13.282 52.0113 12.9817 52.4306 12.755C52.85 12.5283 53.394 12.415 54.0626 12.415C54.4933 12.415 54.9296 12.466 55.3716 12.568C55.825 12.6587 56.284 12.8173 56.7486 13.044L56.3066 14.217C55.4793 13.843 54.7313 13.656 54.0626 13.656C53.0766 13.656 52.5836 14.0243 52.5836 14.761C52.5836 15.0443 52.6743 15.288 52.8556 15.492C53.037 15.696 53.377 15.8603 53.8756 15.985L54.8106 16.223C55.5586 16.4043 56.1083 16.699 56.4596 17.107C56.811 17.515 56.9866 18.042 56.9866 18.688C56.9866 19.1527 56.8846 19.5777 56.6806 19.963C56.488 20.337 56.1706 20.6317 55.7286 20.847C55.298 21.0623 54.7143 21.17 53.9776 21.17C53.4903 21.17 53.003 21.119 52.5156 21.017C52.0396 20.915 51.5466 20.7507 51.0366 20.524L51.4106 19.368C51.898 19.5607 52.34 19.7023 52.7366 19.793C53.1333 19.8837 53.5356 19.929 53.9436 19.929ZM60.6869 10.528H59.1229V8.964H60.6869V10.528ZM60.6019 21H59.2079V12.585H60.6019V21ZM64.5933 16.291V17.294C64.5933 18.1553 64.752 18.807 65.0693 19.249C65.3867 19.6797 65.891 19.895 66.5823 19.895C67.2623 19.895 67.9933 19.7193 68.7753 19.368L69.2003 20.541C68.271 20.9603 67.37 21.17 66.4973 21.17C65.4093 21.17 64.582 20.8243 64.0153 20.133C63.4487 19.4417 63.1653 18.4953 63.1653 17.294V16.291C63.1653 15.0897 63.4487 14.1433 64.0153 13.452C64.582 12.7607 65.4093 12.415 66.4973 12.415C66.9053 12.415 67.3247 12.4717 67.7553 12.585C68.1973 12.687 68.6393 12.8343 69.0813 13.027L68.6563 14.217C68.2823 14.0583 67.9197 13.9337 67.5683 13.843C67.2283 13.7523 66.8997 13.707 66.5823 13.707C65.891 13.707 65.3867 13.928 65.0693 14.37C64.752 14.8007 64.5933 15.441 64.5933 16.291ZM72.553 16.495C72.553 17.5603 72.7627 18.382 73.182 18.96C73.6127 19.5267 74.27 19.81 75.154 19.81C75.5394 19.81 75.919 19.7647 76.293 19.674C76.667 19.5833 77.1147 19.4247 77.636 19.198L78.129 20.456C77.5737 20.7053 77.0467 20.8867 76.548 21C76.0494 21.1133 75.5677 21.17 75.103 21.17C73.7657 21.17 72.7514 20.7507 72.06 19.912C71.3687 19.0733 71.023 17.9343 71.023 16.495V13.945C71.023 12.5057 71.3687 11.3667 72.06 10.528C72.7514 9.68933 73.7657 9.27 75.103 9.27C75.5677 9.27 76.0494 9.32667 76.548 9.44C77.058 9.55333 77.5737 9.73467 78.095 9.984L77.619 11.259C76.701 10.851 75.8794 10.647 75.154 10.647C74.27 10.647 73.6127 10.9303 73.182 11.497C72.7627 12.0637 72.553 12.8797 72.553 13.945V16.495ZM82.5506 21.85C82.188 22.87 81.7403 23.6123 81.2076 24.077C80.6863 24.553 79.9553 24.791 79.0146 24.791V23.414C79.4 23.4027 79.7286 23.3517 80.0006 23.261C80.284 23.1703 80.5333 22.9833 80.7486 22.7C80.9753 22.428 81.1906 22.02 81.3946 21.476L81.5646 21.051L78.5386 12.585H79.9666L81.3776 16.682L82.2446 19.3L83.0776 16.682L84.4546 12.585H85.8316L82.5506 21.85ZM94.1942 16.274V17.294C94.1942 18.4953 93.8825 19.4417 93.2592 20.133C92.6472 20.8243 91.7688 21.17 90.6242 21.17C89.4908 21.17 88.6125 20.8243 87.9892 20.133C87.3658 19.4417 87.0542 18.4953 87.0542 17.294V16.274C87.0542 15.0953 87.3602 14.1603 87.9722 13.469C88.5955 12.7663 89.4795 12.415 90.6242 12.415C91.7688 12.415 92.6472 12.7663 93.2592 13.469C93.8825 14.1603 94.1942 15.0953 94.1942 16.274ZM92.7492 16.274C92.7492 15.4693 92.5678 14.8403 92.2052 14.387C91.8425 13.9223 91.3155 13.69 90.6242 13.69C89.9442 13.69 89.4172 13.9223 89.0432 14.387C88.6805 14.8403 88.4992 15.4693 88.4992 16.274V17.294C88.4992 18.1327 88.6805 18.7787 89.0432 19.232C89.4172 19.6853 89.9442 19.912 90.6242 19.912C91.3155 19.912 91.8425 19.6853 92.2052 19.232C92.5678 18.7787 92.7492 18.1327 92.7492 17.294V16.274ZM101.912 21V19.81C101.323 20.32 100.796 20.677 100.331 20.881C99.8668 21.0737 99.4021 21.17 98.9374 21.17C98.1894 21.17 97.6171 20.9263 97.2204 20.439C96.8238 19.9403 96.6254 19.2433 96.6254 18.348V12.585H98.0194V18.144C98.0194 18.7333 98.1214 19.1697 98.3254 19.453C98.5408 19.725 98.8581 19.861 99.2774 19.861C99.5948 19.861 99.9518 19.7817 100.348 19.623C100.745 19.4643 101.238 19.147 101.827 18.671V12.585H103.221V21H101.912Z" fill="black"/>
</svg>
